# xmcd
#
# Track frame offsets:
#	150
#	13986
#	25461
#	38774
#	51545
#	64246
#	77405
#	89920
#	102977
#	117626
#	131463
#	145426
#	159750
#	173406
#	189553
#	202910
#	217826
#	230851
#
# Disc length: 3277 seconds
#
# Revision: 1
# Processed by: cddbd v1.5.2PL0 Copyright (c) Steve Scherf et al.
# Submitted via: audiograbber 1.83.01
#
DISCID=020ccb12
DTITLE=Django Reinhardt - Jazzclub Legends - The Art of Swing
DYEAR=2011
DGENRE=Jazz
TTITLE0=I Wonder Where My Baby Is Tonight
TTITLE1=Swing From Paris
TTITLE2=I Got Rhythm
TTITLE3=My Melancholy Baby
TTITLE4=Brazil
TTITLE5=Billets Doux
TTITLE6=Swing 48
TTITLE7=Night And Day
TTITLE8=Jeepers Creepers
TTITLE9=Topsy
TTITLE10=Django's Blues
TTITLE11=Limehouse Blues
TTITLE12=Moonglow
TTITLE13=Anniversary Song
TTITLE14=Gipsy With A Song
TTITLE15=September Song
TTITLE16=Mano
TTITLE17=Swing 39
EXTD=YEAR: 2011
EXTT0=
EXTT1=
EXTT2=
EXTT3=
EXTT4=
EXTT5=
EXTT6=
EXTT7=
EXTT8=
EXTT9=
EXTT10=
EXTT11=
EXTT12=
EXTT13=
EXTT14=
EXTT15=
EXTT16=
EXTT17=
PLAYORDER=
